<?xml version="1.0" encoding="UTF-8"?>
<svg version="1.1" xmlns="http://www.w3.org/2000/svg" width="166" height="166">
<path d="M0 0 C12.63527174 10.54505021 21.31922716 24.36202231 24.1875 40.6875 C25.07253448 53.05112646 25.23802164 65.19549338 20.1875 76.6875 C19.82527344 77.56148438 19.46304688 78.43546875 19.08984375 79.3359375 C14.04775596 90.44562246 5.03208029 101.13830916 -5.57421875 107.2890625 C-8.05892544 108.48363394 -8.05892544 108.48363394 -8.4375 111.125 C-8.03949087 113.91741047 -8.03949087 113.91741047 -5.375 115.5625 C-2.8125 117.6875 -2.8125 117.6875 -2 121.4375 C-1.938125 122.51 -1.87625 123.5825 -1.8125 124.6875 C-3.4625 124.3575 -5.1125 124.0275 -6.8125 123.6875 C-6.4825 122.0375 -6.1525 120.3875 -5.8125 118.6875 C-6.6271875 118.38328125 -7.441875 118.0790625 -8.28125 117.765625 C-10.8125 115.6875 -10.8125 115.6875 -11.2734375 113.77148438 C-11.41633986 111.3106216 -11.39474316 108.90105645 -11.3125 106.4375 C-11.31636719 105.18646484 -11.31636719 105.18646484 -11.3203125 103.91015625 C-11.23367098 98.39109137 -10.18253399 94.64522416 -7.8125 89.6875 C-7.01934474 86.3874496 -6.64901403 83.21031071 -6.49609375 79.82421875 C-6.45419922 78.93798828 -6.41230469 78.05175781 -6.36914062 77.13867188 C-6.32982422 76.22666016 -6.29050781 75.31464844 -6.25 74.375 C-6.18522461 72.97797852 -6.18522461 72.97797852 -6.11914062 71.55273438 C-6.01352775 69.26445546 -5.91142248 66.97607628 -5.8125 64.6875 C-7.2975 64.1925 -7.2975 64.1925 -8.8125 63.6875 C-8.8125 57.4175 -8.8125 51.1475 -8.8125 44.6875 C-7.8225 44.6875 -6.8325 44.6875 -5.8125 44.6875 C-5.90861572 44.07229492 -6.00473145 43.45708984 -6.10375977 42.82324219 C-6.53562217 40.02917937 -6.95542676 37.23343348 -7.375 34.4375 C-7.52646484 33.46941406 -7.67792969 32.50132813 -7.83398438 31.50390625 C-7.97255859 30.56933594 -8.11113281 29.63476562 -8.25390625 28.671875 C-8.38482666 27.81303711 -8.51574707 26.95419922 -8.65063477 26.06933594 C-8.8132082 23.67707886 -8.53226511 21.95947422 -7.8125 19.6875 C-9.1325 19.6875 -10.4525 19.6875 -11.8125 19.6875 C-12.39128906 19.36265625 -12.97007813 19.0378125 -13.56640625 18.703125 C-16.88651995 17.2018562 -20.17613075 17.39840571 -23.75 17.4375 C-24.45318359 17.42976563 -25.15636719 17.42203125 -25.88085938 17.4140625 C-30.02204246 17.42958709 -33.04783679 18.03759543 -36.8125 19.6875 C-38.1325 19.6875 -39.4525 19.6875 -40.8125 19.6875 C-40.63203125 20.39390625 -40.4515625 21.1003125 -40.265625 21.828125 C-39.00428316 29.78762694 -42.09709436 38.28184825 -44.8125 45.6875 C-47.9510057 44.94311083 -50.83259661 43.92912641 -53.8125 42.6875 C-53.8125 43.6775 -53.8125 44.6675 -53.8125 45.6875 C-52.8225 46.0175 -51.8325 46.3475 -50.8125 46.6875 C-51.67230469 47.13738281 -52.53210938 47.58726563 -53.41796875 48.05078125 C-68.27922602 56.04451304 -79.55620362 67.13432667 -91.28564453 79.12841797 C-93.11406335 80.9954283 -94.96008174 82.84432073 -96.8125 84.6875 C-97.78246893 82.71400976 -98.73785474 80.73335003 -99.6875 78.75 C-100.22117187 77.64785156 -100.75484375 76.54570313 -101.3046875 75.41015625 C-107.49281724 61.14635299 -106.84179152 42.58594005 -101.35546875 28.234375 C-94.18582797 11.75327671 -82.56603346 -1.38311925 -65.9375 -8.6875 C-42.97815015 -16.82593621 -19.68291525 -14.40462483 0 0 Z M-5.8125 18.6875 C-4.8125 22.6875 -4.8125 22.6875 -4.8125 22.6875 Z M-73.8125 22.6875 C-75.5268618 24.64677063 -77.19655168 26.64630212 -78.8125 28.6875 C-77.18910195 30.39634005 -75.51930947 32.06196717 -73.8125 33.6875 C-73.1525 33.6875 -72.4925 33.6875 -71.8125 33.6875 C-70.0981382 31.72822937 -68.42844832 29.72869788 -66.8125 27.6875 C-68.43589805 25.97865995 -70.10569053 24.31303283 -71.8125 22.6875 C-72.4725 22.6875 -73.1325 22.6875 -73.8125 22.6875 Z M-50.8125 36.6875 C-51.1425 37.6775 -51.4725 38.6675 -51.8125 39.6875 C-49.3375 40.6775 -49.3375 40.6775 -46.8125 41.6875 C-47.4725 40.0375 -48.1325 38.3875 -48.8125 36.6875 C-49.4725 36.6875 -50.1325 36.6875 -50.8125 36.6875 Z M8.1875 51.6875 C6.7025 53.6675 6.7025 53.6675 5.1875 55.6875 C6.1775 56.0175 7.1675 56.3475 8.1875 56.6875 C8.5175 57.3475 8.8475 58.0075 9.1875 58.6875 C10.1775 57.3675 11.1675 56.0475 12.1875 54.6875 C10.8675 53.6975 9.5475 52.7075 8.1875 51.6875 Z " fill="#4F43E1" transform="translate(124.8125,29.3125)"/>
<path d="M0 0 C0.99 0 1.98 0 3 0 C3 0.66 3 1.32 3 2 C2.34 2 1.68 2 1 2 C1.18046875 2.70640625 1.3609375 3.4128125 1.546875 4.140625 C2.80821684 12.10012694 -0.28459436 20.59434825 -3 28 C-6.1385057 27.25561083 -9.02009661 26.24162641 -12 25 C-12 25.99 -12 26.98 -12 28 C-11.01 28.33 -10.02 28.66 -9 29 C-9.85980469 29.44988281 -10.71960938 29.89976563 -11.60546875 30.36328125 C-20.73708039 35.28180468 -28.27183672 41.12481218 -36 48 C-37.98812293 49.68160169 -39.99222663 51.34179432 -42 53 C-42 52.34 -42 51.68 -42 51 C-42.66 50.67 -43.32 50.34 -44 50 C-43.01 50 -42.02 50 -41 50 C-40.67 49.01 -40.34 48.02 -40 47 C-38.34928604 45.97388051 -36.68029994 44.97691857 -35 44 C-33.63015802 42.70420353 -32.2848951 41.38007251 -31 40 C-31.33 39.34 -31.66 38.68 -32 38 C-28.535 37.505 -28.535 37.505 -25 37 C-25 36.34 -25 35.68 -25 35 C-23.02 34.34 -21.04 33.68 -19 33 C-19 32.34 -19 31.68 -19 31 C-18.01 31 -17.02 31 -16 31 C-14.88214887 28.88214887 -14.88214887 28.88214887 -14 26 C-13.67 25.01 -13.34 24.02 -13 23 C-12.34 23 -11.68 23 -11 23 C-11 20.03 -11 17.06 -11 14 C-10.21625 14.20625 -9.4325 14.4125 -8.625 14.625 C-7.75875 14.74875 -6.8925 14.8725 -6 15 C-5.34 14.34 -4.68 13.68 -4 13 C-3.505 13.495 -3.505 13.495 -3 14 C-3 12.68 -3 11.36 -3 10 C-2.34 9.67 -1.68 9.34 -1 9 C-1 8.34 -1 7.68 -1 7 C-1.66 7 -2.32 7 -3 7 C-2.1654738 4.49642139 -1.20628008 2.33214148 0 0 Z M-9 19 C-9.33 19.99 -9.66 20.98 -10 22 C-7.525 22.99 -7.525 22.99 -5 24 C-5.66 22.35 -6.32 20.7 -7 19 C-7.66 19 -8.32 19 -9 19 Z " fill="#4841BC" transform="translate(83,47)"/>
<path d="M0 0 C8.07309695 0.28326656 13.08502501 3.14980224 18.8125 8.75 C24.83466293 17.6972135 24.34439064 26.60450473 24 37 C25.86205078 36.96132812 25.86205078 36.96132812 27.76171875 36.921875 C33.05614698 36.92654072 36.87695269 38.01848918 40.875 41.75 C42.38822699 44.77645399 42.67836439 47.65498963 43 51 C42.34 51 41.68 51 41 51 C40.79697266 50.06027344 40.79697266 50.06027344 40.58984375 49.1015625 C39.92151149 46.56430109 39.20172657 44.33502743 38 42 C34.86091535 40.29214332 34.86091535 40.29214332 31 40 C30.18917969 39.89429688 29.37835938 39.78859375 28.54296875 39.6796875 C26.36352419 39.4119762 24.18750893 39.18849283 22 39 C21.96261719 37.87722656 21.92523438 36.75445312 21.88671875 35.59765625 C21.49924632 26.0651959 21.09140864 17.96498963 15.9375 9.6875 C12.59868687 6.63284118 9.62695323 5.34352132 5.40234375 3.859375 C3.15848623 3.05669426 1.10614603 2.10900992 -1 1 C-0.67 0.67 -0.34 0.34 0 0 Z " fill="#4C4FBC" transform="translate(47,103)"/>
<path d="M0 0 C0.66 0 1.32 0 2 0 C2 16.83 2 33.66 2 51 C3.65 51.33 5.3 51.66 7 52 C9.8125 54.5625 9.8125 54.5625 12 57 C11.67 57.99 11.34 58.98 11 60 C8 61 8 61 5 60 C5.20625 59.38125 5.4125 58.7625 5.625 58.125 C5.810625 57.073125 5.810625 57.073125 6 56 C3.9714169 53.62841973 3.9714169 53.62841973 0 53 C0 35.51 0 18.02 0 0 Z " fill="#4D48BF" transform="translate(105,93)"/>
<path d="M0 0 C0.99 0 1.98 0 3 0 C3 0.66 3 1.32 3 2 C2.34 2 1.68 2 1 2 C1.26876953 3.04800781 1.26876953 3.04800781 1.54296875 4.1171875 C2.0556367 7.35093917 1.81843776 9.89509335 1.3125 13.125 C1.16425781 14.15882812 1.01601562 15.19265625 0.86328125 16.2578125 C-0.13828908 19.43927121 -1.175507 20.33176584 -4 22 C-4.45375 21.34 -4.9075 20.68 -5.375 20 C-5.91125 19.34 -6.4475 18.68 -7 18 C-7.66 18 -8.32 18 -9 18 C-9 19.98 -9 21.96 -9 24 C-10.32 23.67 -11.64 23.34 -13 23 C-12.34 23 -11.68 23 -11 23 C-11 20.03 -11 17.06 -11 14 C-10.21625 14.20625 -9.4325 14.4125 -8.625 14.625 C-7.75875 14.74875 -6.8925 14.8725 -6 15 C-5.34 14.34 -4.68 13.68 -4 13 C-3.67 13.33 -3.34 13.66 -3 14 C-3 12.68 -3 11.36 -3 10 C-2.34 9.67 -1.68 9.34 -1 9 C-1 8.34 -1 7.68 -1 7 C-1.66 7 -2.32 7 -3 7 C-2.1654738 4.49642139 -1.20628008 2.33214148 0 0 Z " fill="#4B3FDD" transform="translate(83,47)"/>
<path d="M0 0 C0.33 0 0.66 0 1 0 C0.125 6.875 0.125 6.875 -1 8 C-1.24733137 12.14276875 -1.24733137 12.14276875 0 16 C0.928125 15.319375 1.85625 14.63875 2.8125 13.9375 C3.864375 13.298125 4.91625 12.65875 6 12 C6.99 12.33 7.98 12.66 9 13 C8.3503125 13.37511719 7.700625 13.75023437 7.03125 14.13671875 C6.1959375 14.64847656 5.360625 15.16023437 4.5 15.6875 C3.6646875 16.18636719 2.829375 16.68523437 1.96875 17.19921875 C-0.24950571 18.85680115 -0.24950571 18.85680115 -0.43359375 21.58984375 C-0.23275247 24.25559184 -0.23275247 24.25559184 2.4375 25.875 C5 28 5 28 5.8125 31.75 C5.874375 32.8225 5.93625 33.895 6 35 C4.35 34.67 2.7 34.34 1 34 C1.33 32.35 1.66 30.7 2 29 C0.77796875 28.54367188 0.77796875 28.54367188 -0.46875 28.078125 C-3 26 -3 26 -3.4609375 24.08398438 C-3.60383986 21.6231216 -3.58224316 19.21355645 -3.5 16.75 C-3.50257812 15.91597656 -3.50515625 15.08195313 -3.5078125 14.22265625 C-3.42215992 8.76658702 -2.47143725 4.86399884 0 0 Z " fill="#4C45BA" transform="translate(117,119)"/>
<path d="M0 0 C0.33 0 0.66 0 1 0 C1.01981934 0.66942627 1.03963867 1.33885254 1.06005859 2.02856445 C1.15655166 5.12353971 1.26571634 8.21795099 1.375 11.3125 C1.4059375 12.36501953 1.436875 13.41753906 1.46875 14.50195312 C1.81829128 23.96869626 3.18508478 32.95205821 6 42 C5.01 41.67 4.02 41.34 3 41 C-1.12974396 31.78749425 -1.1591313 23.09134064 -1.125 13.125 C-1.12886719 11.97257812 -1.13273437 10.82015625 -1.13671875 9.6328125 C-1.13542969 8.5396875 -1.13414063 7.4465625 -1.1328125 6.3203125 C-1.13168457 5.32273926 -1.13055664 4.32516602 -1.12939453 3.29736328 C-1 1 -1 1 0 0 Z " fill="#5556BF" transform="translate(84,103)"/>
<path d="M0 0 C7.20130754 0.25267746 12.37686538 2.42272784 17.54296875 7.5234375 C19.77429308 10.1015659 21.97848478 12.73115129 23 16 C22.625 19.25 22.625 19.25 22 22 C21.67 22 21.34 22 21 22 C20.84144531 21.41992188 20.68289062 20.83984375 20.51953125 20.2421875 C18.90691113 14.84302841 17.25690679 10.89461685 13 7 C10.50813945 5.77429587 8.02170481 4.77958197 5.40234375 3.859375 C3.15848623 3.05669426 1.10614603 2.10900992 -1 1 C-0.67 0.67 -0.34 0.34 0 0 Z " fill="#4948AE" transform="translate(47,103)"/>
<path d="M0 0 C1.32 0 2.64 0 4 0 C4 5.61 4 11.22 4 17 C2.68 16.67 1.36 16.34 0 16 C0 10.72 0 5.44 0 0 Z " fill="#4B44D1" transform="translate(109,74)"/>
<path d="M0 0 C0.99 0 1.98 0 3 0 C3.6875 2.125 3.6875 2.125 4 5 C3.5153125 5.8765625 3.030625 6.753125 2.53125 7.65625 C0.63872018 11.78891716 0.6550386 14.90955632 0.8125 19.375 C0.82603516 20.11105469 0.83957031 20.84710938 0.85351562 21.60546875 C0.88855131 23.40396743 0.94234712 25.20208422 1 27 C-1.43818936 23.34271595 -1.6716692 20.06712105 -2.125 15.8125 C-2.21136719 15.06291016 -2.29773438 14.31332031 -2.38671875 13.54101562 C-2.59838382 11.69482588 -2.80015464 9.84750656 -3 8 C-2.34 8 -1.68 8 -1 8 C-1 7.34 -1 6.68 -1 6 C-0.34 6 0.32 6 1 6 C0.67 4.02 0.34 2.04 0 0 Z " fill="#4941CA" transform="translate(119,46)"/>
<path d="M0 0 C0.99 0.33 1.98 0.66 3 1 C-1.33333333 5.33333333 -5.66666667 9.66666667 -10 14 C-10.67154933 12.71086513 -11.33708859 11.41859796 -12 10.125 C-12.37125 9.40570313 -12.7425 8.68640625 -13.125 7.9453125 C-14 6 -14 6 -14 4 C-12.68 4.33 -11.36 4.66 -10 5 C-10 6.65 -10 8.3 -10 10 C-9.34 10 -8.68 10 -8 10 C-8 9.34 -8 8.68 -8 8 C-7.01 7.34 -6.02 6.68 -5 6 C-5 5.01 -5 4.02 -5 3 C-4.360625 2.87625 -3.72125 2.7525 -3.0625 2.625 C-2.381875 2.41875 -1.70125 2.2125 -1 2 C-0.67 1.34 -0.34 0.68 0 0 Z " fill="#4A41C1" transform="translate(38,100)"/>
<path d="M0 0 C1.32 0 2.64 0 4 0 C4 4.62 4 9.24 4 14 C2.68 13.34 1.36 12.68 0 12 C0 8.04 0 4.08 0 0 Z " fill="#4B44D4" transform="translate(103,74)"/>
<path d="M0 0 C0.33 0 0.66 0 1 0 C1 1.98 1 3.96 1 6 C2.1446875 6.37125 2.1446875 6.37125 3.3125 6.75 C6.32166511 8.14961168 7.4268497 9.10209155 9 12 C9.1875 14.75 9.1875 14.75 9 17 C7.35 16.67 5.7 16.34 4 16 C4.33 14.35 4.66 12.7 5 11 C3.7625 10.505 3.7625 10.505 2.5 10 C0 8 0 8 -0.33203125 6.01953125 C-0.31424822 4.01004942 -0.16416751 2.0028436 0 0 Z " fill="#5252C7" transform="translate(114,137)"/>
<path d="M0 0 C0.99 0 1.98 0 3 0 C3 0.66 3 1.32 3 2 C2.34 2 1.68 2 1 2 C1.18433594 2.69480469 1.36867188 3.38960937 1.55859375 4.10546875 C2.0674953 7.44260193 1.680978 10.00182365 1.0625 13.3125 C0.77052734 14.91544922 0.77052734 14.91544922 0.47265625 16.55078125 C0.31667969 17.35902344 0.16070312 18.16726562 0 19 C-0.33 19 -0.66 19 -1 19 C-1 16.03 -1 13.06 -1 10 C-1.66 9.67 -2.32 9.34 -3 9 C-2.34 9 -1.68 9 -1 9 C-1 8.34 -1 7.68 -1 7 C-1.66 7 -2.32 7 -3 7 C-2.1654738 4.49642139 -1.20628008 2.33214148 0 0 Z " fill="#4742C2" transform="translate(83,47)"/>
<path d="M0 0 C0.99 0.66 1.98 1.32 3 2 C1.71937515 3.7074998 0.38232443 5.37373596 -1 7 C-1.66 7 -2.32 7 -3 7 C-3.33 8.32 -3.66 9.64 -4 11 C-5.65 9.68 -7.3 8.36 -9 7 C-6.03 4.69 -3.06 2.38 0 0 Z " fill="#4D40DC" transform="translate(52,24)"/>
<path d="M0 0 C1.32 0 2.64 0 4 0 C4 3.3 4 6.6 4 10 C3.01 10 2.02 10 1 10 C0 9 0 9 -0.09765625 6.93359375 C-0.08605469 6.10988281 -0.07445313 5.28617187 -0.0625 4.4375 C-0.05347656 3.61121094 -0.04445313 2.78492187 -0.03515625 1.93359375 C-0.02355469 1.29550781 -0.01195313 0.65742187 0 0 Z " fill="#403AD0" transform="translate(97,74)"/>
<path d="M0 0 C1.65 0 3.3 0 5 0 C5.33 0.66 5.66 1.32 6 2 C6.66 2 7.32 2 8 2 C7.67 2.99 7.34 3.98 7 5 C4.03 5 1.06 5 -2 5 C-2 4.01 -2 3.02 -2 2 C-1.34 2 -0.68 2 0 2 C0 1.34 0 0.68 0 0 Z " fill="#4A48A9" transform="translate(98,61)"/>
<path d="M0 0 C0 0.66 0 1.32 0 2 C-0.66 2 -1.32 2 -2 2 C-2.33 2.99 -2.66 3.98 -3 5 C-3.48984375 4.68289062 -3.9796875 4.36578125 -4.484375 4.0390625 C-8.001677 2.58626385 -11.49665393 2.53415248 -15.25 2.375 C-15.99507813 2.33632813 -16.74015625 2.29765625 -17.5078125 2.2578125 C-19.3381524 2.16394892 -21.16904143 2.08090282 -23 2 C-23 1.67 -23 1.34 -23 1 C-20.10425766 0.83160792 -17.20842326 0.66522615 -14.3125 0.5 C-13.08756836 0.42845703 -13.08756836 0.42845703 -11.83789062 0.35546875 C-7.88646942 0.13150156 -3.95981243 -0.06451833 0 0 Z " fill="#4C44BC" transform="translate(116,44)"/>
<path d="M0 0 C3.2626876 3.08632611 6.02235218 5.93483504 8 10 C7.67 10.66 7.34 11.32 7 12 C5.35 11.67 3.7 11.34 2 11 C2.04125 10.113125 2.0825 9.22625 2.125 8.3125 C2.00102754 5.02722987 1.38612096 2.94550705 0 0 Z " fill="#4D43C6" transform="translate(133,38)"/>
<path d="M0 0 C1 2 1 2 0.3125 4.5 C-1.18754118 7.3572213 -2.08949448 7.81760713 -5 9 C-5.66 9.66 -6.32 10.32 -7 11 C-6.68232368 5.59950264 -3.80003673 3.47662935 0 0 Z " fill="#4C43CD" transform="translate(41,32)"/>
<path d="M0 0 C1.32 0.33 2.64 0.66 4 1 C1.69 4.63 -0.62 8.26 -3 12 C-3.33 11.01 -3.66 10.02 -4 9 C-3.01439389 7.65599167 -2.01241685 6.32392972 -1 5 C-0.28566879 2.35065178 -0.28566879 2.35065178 0 0 Z " fill="#4D43C2" transform="translate(138,111)"/>
<path d="M0 0 C1.32 0 2.64 0 4 0 C4 2.31 4 4.62 4 7 C2.68 6.67 1.36 6.34 0 6 C0 4.02 0 2.04 0 0 Z " fill="#4544BF" transform="translate(90,74)"/>
<path d="M0 0 C8.57142857 -0.14285714 8.57142857 -0.14285714 12 1 C12 1.66 12 2.32 12 3 C8.04 2.67 4.08 2.34 0 2 C0 1.34 0 0.68 0 0 Z " fill="#424CBB" transform="translate(71,140)"/>
<path d="M0 0 C1.32 0.33 2.64 0.66 4 1 C3.67 1.61875 3.34 2.2375 3 2.875 C1.85806765 4.91018344 1.85806765 4.91018344 2 7 C1.01 7.33 0.02 7.66 -1 8 C-1.625 5.625 -1.625 5.625 -2 3 C-1.34 2.34 -0.68 1.68 0 1 C0 0.67 0 0.34 0 0 Z " fill="#453BD9" transform="translate(80,44)"/>
<path d="M0 0 C-0.33 0.99 -0.66 1.98 -1 3 C-4 4 -4 4 -7 3 C-7 2.01 -7 1.02 -7 0 C-2.25 -1.125 -2.25 -1.125 0 0 Z " fill="#4D53BF" transform="translate(117,150)"/>
<path d="M0 0 C0.66 0 1.32 0 2 0 C2 0.99 2 1.98 2 3 C2.66 3.33 3.32 3.66 4 4 C2.35 4.66 0.7 5.32 -1 6 C-1.33 4.68 -1.66 3.36 -2 2 C-1.34 2 -0.68 2 0 2 C0 1.34 0 0.68 0 0 Z " fill="#4842C9" transform="translate(89,43)"/>
<path d="M0 0 C0.33 0.99 0.66 1.98 1 3 C-0.96466413 4.06775224 -2.96855359 5.06553465 -5 6 C-5.66 5.67 -6.32 5.34 -7 5 C-4.69 3.35 -2.38 1.7 0 0 Z " fill="#4F45C3" transform="translate(51,25)"/>
<path d="M0 0 C1.65 0 3.3 0 5 0 C5 1.32 5 2.64 5 4 C3.68 4 2.36 4 1 4 C0.67 2.68 0.34 1.36 0 0 Z " fill="#514CCE" transform="translate(98,61)"/>
<path d="M0 0 C2.31 1.98 4.62 3.96 7 6 C6.01 6.33 5.02 6.66 4 7 C0 2.25 0 2.25 0 0 Z " fill="#4E43C1" transform="translate(126,31)"/>
<path d="M0 0 C0.99 0 1.98 0 3 0 C3 1.32 3 2.64 3 4 C1.68 3.67 0.36 3.34 -1 3 C-0.67 2.01 -0.34 1.02 0 0 Z " fill="#514ABB" transform="translate(104,55)"/>
<path d="M0 0 C1.32 0.33 2.64 0.66 4 1 C3.67 1.99 3.34 2.98 3 4 C2.01 4 1.02 4 0 4 C0 2.68 0 1.36 0 0 Z " fill="#4F48B7" transform="translate(93,55)"/>
<path d="M0 0 C1.32 0 2.64 0 4 0 C3.67 1.32 3.34 2.64 3 4 C2.01 3.34 1.02 2.68 0 2 C0 1.34 0 0.68 0 0 Z " fill="#4B44B2" transform="translate(83,74)"/>
<path d="M0 0 C0.99 0.33 1.98 0.66 3 1 C2.67 1.66 2.34 2.32 2 3 C1.34 3 0.68 3 0 3 C0 2.01 0 1.02 0 0 Z " fill="#4A50A6" transform="translate(80,150)"/>
<path d="M0 0 C0.66 0 1.32 0 2 0 C2 0.99 2 1.98 2 3 C1.34 3 0.68 3 0 3 C0 2.01 0 1.02 0 0 Z " fill="#4B4C9A" transform="translate(106,150)"/>
<path d="M0 0 C0.66 0 1.32 0 2 0 C2 0.99 2 1.98 2 3 C1.34 3 0.68 3 0 3 C0 2.01 0 1.02 0 0 Z " fill="#4851A1" transform="translate(102,150)"/>
<path d="M0 0 C0.66 0 1.32 0 2 0 C2 0.99 2 1.98 2 3 C1.34 3 0.68 3 0 3 C0 2.01 0 1.02 0 0 Z " fill="#4C578A" transform="translate(84,150)"/>
<path d="M0 0 C0.66 0 1.32 0 2 0 C2 0.99 2 1.98 2 3 C1.34 3 0.68 3 0 3 C0 2.01 0 1.02 0 0 Z " fill="#4D5183" transform="translate(76,150)"/>
<path d="" fill="#FFFFFF" transform="translate(0,0)"/>
<path d="" fill="#FFFFFF" transform="translate(0,0)"/>
<path d="" fill="#FFFFFF" transform="translate(0,0)"/>
<path d="" fill="#FFFFFF" transform="translate(0,0)"/>
<path d="" fill="#FFFFFF" transform="translate(0,0)"/>
<path d="" fill="#FFFFFF" transform="translate(0,0)"/>
<path d="" fill="#FFFFFF" transform="translate(0,0)"/>
<path d="" fill="#FFFFFF" transform="translate(0,0)"/>
<path d="" fill="#FFFFFF" transform="translate(0,0)"/>
<path d="" fill="#FFFFFF" transform="translate(0,0)"/>
<path d="" fill="#FFFFFF" transform="translate(0,0)"/>
<path d="" fill="#FFFFFF" transform="translate(0,0)"/>
</svg>
