<?xml version="1.0" encoding="UTF-8"?>
<svg version="1.1" xmlns="http://www.w3.org/2000/svg" width="500" height="173">
<path d="M0 0 C12.63527174 10.54505021 21.31922716 24.36202231 24.1875 40.6875 C25.07253448 53.05112646 25.23802164 65.19549338 20.1875 76.6875 C19.82527344 77.56148438 19.46304688 78.43546875 19.08984375 79.3359375 C14.04775596 90.44562246 5.03208029 101.13830916 -5.57421875 107.2890625 C-8.05892544 108.48363394 -8.05892544 108.48363394 -8.4375 111.125 C-8.03949087 113.91741047 -8.03949087 113.91741047 -5.375 115.5625 C-2.8125 117.6875 -2.8125 117.6875 -2 121.4375 C-1.938125 122.51 -1.87625 123.5825 -1.8125 124.6875 C-3.4625 124.3575 -5.1125 124.0275 -6.8125 123.6875 C-6.4825 122.0375 -6.1525 120.3875 -5.8125 118.6875 C-6.6271875 118.38328125 -7.441875 118.0790625 -8.28125 117.765625 C-10.8125 115.6875 -10.8125 115.6875 -11.2734375 113.77148438 C-11.41633986 111.3106216 -11.39474316 108.90105645 -11.3125 106.4375 C-11.31636719 105.18646484 -11.31636719 105.18646484 -11.3203125 103.91015625 C-11.23367098 98.39109137 -10.18253399 94.64522416 -7.8125 89.6875 C-7.01934474 86.3874496 -6.64901403 83.21031071 -6.49609375 79.82421875 C-6.45419922 78.93798828 -6.41230469 78.05175781 -6.36914062 77.13867188 C-6.32982422 76.22666016 -6.29050781 75.31464844 -6.25 74.375 C-6.18522461 72.97797852 -6.18522461 72.97797852 -6.11914062 71.55273438 C-6.01352775 69.26445546 -5.91142248 66.97607628 -5.8125 64.6875 C-7.2975 64.1925 -7.2975 64.1925 -8.8125 63.6875 C-8.8125 57.4175 -8.8125 51.1475 -8.8125 44.6875 C-7.8225 44.6875 -6.8325 44.6875 -5.8125 44.6875 C-5.90861572 44.07229492 -6.00473145 43.45708984 -6.10375977 42.82324219 C-6.53562217 40.02917937 -6.95542676 37.23343348 -7.375 34.4375 C-7.52646484 33.46941406 -7.67792969 32.50132813 -7.83398438 31.50390625 C-7.97255859 30.56933594 -8.11113281 29.63476562 -8.25390625 28.671875 C-8.38482666 27.81303711 -8.51574707 26.95419922 -8.65063477 26.06933594 C-8.8132082 23.67707886 -8.53226511 21.95947422 -7.8125 19.6875 C-9.1325 19.6875 -10.4525 19.6875 -11.8125 19.6875 C-12.39128906 19.36265625 -12.97007812 19.0378125 -13.56640625 18.703125 C-16.88651995 17.2018562 -20.17613075 17.39840571 -23.75 17.4375 C-24.45318359 17.42976563 -25.15636719 17.42203125 -25.88085938 17.4140625 C-30.02204246 17.42958709 -33.04783679 18.03759543 -36.8125 19.6875 C-38.1325 19.6875 -39.4525 19.6875 -40.8125 19.6875 C-40.63203125 20.39390625 -40.4515625 21.1003125 -40.265625 21.828125 C-39.00428316 29.78762694 -42.09709436 38.28184825 -44.8125 45.6875 C-47.9510057 44.94311083 -50.83259661 43.92912641 -53.8125 42.6875 C-53.8125 43.6775 -53.8125 44.6675 -53.8125 45.6875 C-52.8225 46.0175 -51.8325 46.3475 -50.8125 46.6875 C-51.67230469 47.13738281 -52.53210938 47.58726563 -53.41796875 48.05078125 C-68.27922602 56.04451304 -79.55620362 67.13432667 -91.28564453 79.12841797 C-93.11406335 80.9954283 -94.96008174 82.84432073 -96.8125 84.6875 C-97.78246893 82.71400976 -98.73785474 80.73335003 -99.6875 78.75 C-100.22117187 77.64785156 -100.75484375 76.54570313 -101.3046875 75.41015625 C-107.49281724 61.14635299 -106.84179152 42.58594005 -101.35546875 28.234375 C-94.18582797 11.75327671 -82.56603346 -1.38311925 -65.9375 -8.6875 C-42.97815015 -16.82593621 -19.68291525 -14.40462483 0 0 Z M-5.8125 18.6875 C-4.8125 22.6875 -4.8125 22.6875 -4.8125 22.6875 Z M-73.8125 22.6875 C-75.5268618 24.64677063 -77.19655168 26.64630212 -78.8125 28.6875 C-77.18910195 30.39634005 -75.51930947 32.06196717 -73.8125 33.6875 C-73.1525 33.6875 -72.4925 33.6875 -71.8125 33.6875 C-70.0981382 31.72822937 -68.42844832 29.72869788 -66.8125 27.6875 C-68.43589805 25.97865995 -70.10569053 24.31303283 -71.8125 22.6875 C-72.4725 22.6875 -73.1325 22.6875 -73.8125 22.6875 Z M-50.8125 36.6875 C-51.1425 37.6775 -51.4725 38.6675 -51.8125 39.6875 C-49.3375 40.6775 -49.3375 40.6775 -46.8125 41.6875 C-47.4725 40.0375 -48.1325 38.3875 -48.8125 36.6875 C-49.4725 36.6875 -50.1325 36.6875 -50.8125 36.6875 Z M8.1875 51.6875 C6.7025 53.6675 6.7025 53.6675 5.1875 55.6875 C6.1775 56.0175 7.1675 56.3475 8.1875 56.6875 C8.5175 57.3475 8.8475 58.0075 9.1875 58.6875 C10.1775 57.3675 11.1675 56.0475 12.1875 54.6875 C10.8675 53.6975 9.5475 52.7075 8.1875 51.6875 Z " fill="#4F43E1" transform="translate(183.8125,24.3125)"/>
<path d="M0 0 C2.25 1.625 2.25 1.625 3.25 3.625 C3.3216735 6.17657655 3.34308442 8.69972971 3.3125 11.25 C3.30798828 11.95640625 3.30347656 12.6628125 3.29882812 13.390625 C3.28703875 15.13545275 3.26910324 16.880237 3.25 18.625 C4.9 18.955 6.55 19.285 8.25 19.625 C10.89 15.665 13.53 11.705 16.25 7.625 C13.61 7.295 10.97 6.965 8.25 6.625 C8.25 3.985 8.25 1.345 8.25 -1.375 C16.17 -1.375 24.09 -1.375 32.25 -1.375 C33.25 3.625 33.25 3.625 32.44555664 5.56958008 C32.02137451 6.17181396 31.59719238 6.77404785 31.16015625 7.39453125 C30.70576172 8.05517578 30.25136719 8.71582031 29.78320312 9.39648438 C29.29787109 10.07001953 28.81253906 10.74355469 28.3125 11.4375 C27.83103516 12.13037109 27.34957031 12.82324219 26.85351562 13.53710938 C25.66566963 15.24243283 24.45956406 16.93501154 23.25 18.625 C26.55 18.625 29.85 18.625 33.25 18.625 C33.25 20.935 33.25 23.245 33.25 25.625 C28.196682 25.8176016 23.14313436 25.99626925 18.08886719 26.16210938 C16.36998328 26.22046454 14.65122359 26.28260799 12.93261719 26.34863281 C10.46051656 26.44294417 7.98828761 26.52356795 5.515625 26.6015625 C4.36540863 26.64985703 4.36540863 26.64985703 3.19195557 26.6991272 C-0.72238814 26.80872532 -3.36718662 26.62370121 -6.75 24.625 C-8.73848121 25.46797975 -8.73848121 25.46797975 -10.75 26.625 C-13.1875 26.92578125 -13.1875 26.92578125 -15.75 26.9375 C-16.595625 26.95425781 -17.44125 26.97101563 -18.3125 26.98828125 C-21.30269477 26.54262722 -22.64082147 25.78211441 -24.75 23.625 C-25.28125 21.50390625 -25.28125 21.50390625 -25.25 19.1875 C-25.2603125 18.42566406 -25.270625 17.66382812 -25.28125 16.87890625 C-24.53249428 13.70219998 -23.35104361 12.5757827 -20.75 10.625 C-17.515625 9.796875 -17.515625 9.796875 -14 9.375 C-12.82953125 9.22546875 -11.6590625 9.0759375 -10.453125 8.921875 C-9.11507813 8.77492188 -9.11507813 8.77492188 -7.75 8.625 C-8.08 7.965 -8.41 7.305 -8.75 6.625 C-10.07 6.625 -11.39 6.625 -12.75 6.625 C-13.08 7.285 -13.41 7.945 -13.75 8.625 C-17.05 8.625 -20.35 8.625 -23.75 8.625 C-24.08 7.305 -24.41 5.985 -24.75 4.625 C-18.48996356 -2.85226574 -8.90116183 -3.26375934 0 0 Z M-13.75 15.625 C-14.08 16.615 -14.41 17.605 -14.75 18.625 C-12.40466049 19.39456136 -12.40466049 19.39456136 -9.75 19.625 C-7.87359581 18.41581118 -7.87359581 18.41581118 -6.75 16.625 C-6.75 15.965 -6.75 15.305 -6.75 14.625 C-10.64459074 14.41418149 -10.64459074 14.41418149 -13.75 15.625 Z " fill="#4C42D6" transform="translate(285.75,64.375)"/>
<path d="M0 0 C10.23 0 20.46 0 31 0 C31 2.64 31 5.28 31 8 C30 9 30 9 28.23413086 9.11352539 C27.48526611 9.10828857 26.73640137 9.10305176 25.96484375 9.09765625 C25.15595703 9.09443359 24.34707031 9.09121094 23.51367188 9.08789062 C22.66353516 9.07951172 21.81339844 9.07113281 20.9375 9.0625 C20.08349609 9.05798828 19.22949219 9.05347656 18.34960938 9.04882812 C16.23304337 9.03700373 14.11651315 9.01906769 12 9 C12 9.99 12 10.98 12 12 C17.28 12 22.56 12 28 12 C28 14.97 28 17.94 28 21 C22.72 21 17.44 21 12 21 C12 22.32 12 23.64 12 25 C18.27 25 24.54 25 31 25 C31 27.97 31 30.94 31 34 C20.77 34 10.54 34 0 34 C0 22.78 0 11.56 0 0 Z " fill="#4B41D2" transform="translate(227,56)"/>
<path d="M0 0 C1.93166016 0.01740234 1.93166016 0.01740234 3.90234375 0.03515625 C5.19269531 0.04417969 6.48304688 0.05320313 7.8125 0.0625 C8.81152344 0.07410156 9.81054688 0.08570313 10.83984375 0.09765625 C12.5530156 4.61675451 14.26190088 9.13744101 15.96679688 13.65966797 C16.54764528 15.19852642 17.12967205 16.73694061 17.71289062 18.27490234 C18.54996404 20.48289702 19.38281619 22.69244356 20.21484375 24.90234375 C20.4773291 25.59198212 20.73981445 26.28162048 21.01025391 26.99215698 C22.83984375 31.86991284 22.83984375 31.86991284 22.83984375 34.09765625 C18.54984375 34.09765625 14.25984375 34.09765625 9.83984375 34.09765625 C9.50984375 33.10765625 9.17984375 32.11765625 8.83984375 31.09765625 C5.20984375 31.09765625 1.57984375 31.09765625 -2.16015625 31.09765625 C-2.65515625 32.58265625 -2.65515625 32.58265625 -3.16015625 34.09765625 C-7.12015625 34.09765625 -11.08015625 34.09765625 -15.16015625 34.09765625 C-13.71921641 26.60161948 -11.32552167 19.71682476 -8.59765625 12.59765625 C-8.18580078 11.50195312 -7.77394531 10.40625 -7.34960938 9.27734375 C-3.87862713 0.11985869 -3.87862713 0.11985869 0 0 Z M2.83984375 11.09765625 C2.17984375 14.39765625 1.51984375 17.69765625 0.83984375 21.09765625 C2.48984375 21.09765625 4.13984375 21.09765625 5.83984375 21.09765625 C5.17984375 17.79765625 4.51984375 14.49765625 3.83984375 11.09765625 C3.50984375 11.09765625 3.17984375 11.09765625 2.83984375 11.09765625 Z " fill="#4E42DD" transform="translate(382.16015625,55.90234375)"/>
<path d="M0 0 C3.63 0 7.26 0 11 0 C11.27714844 0.92683594 11.55429687 1.85367188 11.83984375 2.80859375 C12.20207031 4.00613281 12.56429688 5.20367187 12.9375 6.4375 C13.29714844 7.63246094 13.65679687 8.82742187 14.02734375 10.05859375 C14.70889142 12.85867545 14.70889142 12.85867545 16 14 C17.32 9.38 18.64 4.76 20 0 C23.3 0 26.6 0 30 0 C31 2 31 2 30.16723633 4.80981445 C29.72661865 5.9824585 29.28600098 7.15510254 28.83203125 8.36328125 C28.47790413 9.30677681 28.47790413 9.30677681 28.11662292 10.26933289 C27.61341152 11.6031307 27.10624002 12.93544005 26.59545898 14.26635742 C25.82125787 16.28961265 25.06514901 18.31897628 24.31054688 20.34960938 C23.81879642 21.64624651 23.32599041 22.94248392 22.83203125 24.23828125 C22.38577393 25.41430908 21.9395166 26.59033691 21.47973633 27.80200195 C19.59743824 31.87001427 17.63479784 35.07214177 13.6875 37.3125 C9.7533205 38.31891801 5.71607321 38.8580366 2 37 C2 34.69 2 32.38 2 30 C4.31 29.34 6.62 28.68 9 28 C6.97753392 21.59552408 4.60402423 15.40932533 1.98193359 9.23022461 C0.58810197 5.8580655 0 3.71851331 0 0 Z " fill="#4D43DA" transform="translate(320,63)"/>
<path d="M0 0 C3.96 0 7.92 0 12 0 C12 11.22 12 22.44 12 34 C8.04 34 4.08 34 0 34 C0 22.78 0 11.56 0 0 Z " fill="#4C42DB" transform="translate(409,56)"/>
<path d="M0 0 C1.65 0 3.3 0 5 0 C4.67 1.32 4.34 2.64 4 4 C4.82757813 3.73896484 4.82757813 3.73896484 5.671875 3.47265625 C8.36475653 2.92594708 10.52647404 3.11497719 13.25 3.4375 C14.14203125 3.53933594 15.0340625 3.64117187 15.953125 3.74609375 C16.62859375 3.82988281 17.3040625 3.91367188 18 4 C18.33 4.99 18.66 5.98 19 7 C17.02 7.33 15.04 7.66 13 8 C13 8.99 13 9.98 13 11 C11.02 11.33 9.04 11.66 7 12 C7.66 13.32 8.32 14.64 9 16 C14.94 16.33 20.88 16.66 27 17 C27 18.98 27 20.96 27 23 C17.76 23 8.52 23 -1 23 C-1.020625 19.761875 -1.04125 16.52375 -1.0625 13.1875 C-1.071604 12.17067139 -1.08070801 11.15384277 -1.09008789 10.10620117 C-1.09258545 9.30158447 -1.09508301 8.49696777 -1.09765625 7.66796875 C-1.10289307 6.84578857 -1.10812988 6.0236084 -1.11352539 5.17651367 C-1 3 -1 3 0 0 Z " fill="#4D42E4" transform="translate(230,66)"/>
<path d="M0 0 C1.625 0.828125 1.625 0.828125 3.8125 2.328125 C3.8125 4.968125 3.8125 7.608125 3.8125 10.328125 C3.4825 10.328125 3.1525 10.328125 2.8125 10.328125 C2.8125 8.018125 2.8125 5.708125 2.8125 3.328125 C0.5025 3.328125 -1.8075 3.328125 -4.1875 3.328125 C-3.5275 4.978125 -2.8675 6.628125 -2.1875 8.328125 C-3.5075 8.658125 -4.8275 8.988125 -6.1875 9.328125 C-6.5175 8.668125 -6.8475 8.008125 -7.1875 7.328125 C-8.5075 7.328125 -9.8275 7.328125 -11.1875 7.328125 C-11.5175 7.988125 -11.8475 8.648125 -12.1875 9.328125 C-15.4875 9.328125 -18.7875 9.328125 -22.1875 9.328125 C-22.5175 8.008125 -22.8475 6.688125 -23.1875 5.328125 C-17.4006685 -1.58392374 -8.56234845 -2.62986417 0 0 Z " fill="#4A41D4" transform="translate(284.1875,63.671875)"/>
<path d="M0 0 C8.07309695 0.28326656 13.08502501 3.14980224 18.8125 8.75 C24.83466293 17.6972135 24.34439064 26.60450473 24 37 C25.86205078 36.96132812 25.86205078 36.96132812 27.76171875 36.921875 C33.05614698 36.92654072 36.87695269 38.01848918 40.875 41.75 C42.38822699 44.77645399 42.67836439 47.65498963 43 51 C42.34 51 41.68 51 41 51 C40.79697266 50.06027344 40.79697266 50.06027344 40.58984375 49.1015625 C39.92151149 46.56430109 39.20172657 44.33502743 38 42 C34.86091535 40.29214332 34.86091535 40.29214332 31 40 C30.18917969 39.89429688 29.37835938 39.78859375 28.54296875 39.6796875 C26.36352419 39.4119762 24.18750893 39.18849283 22 39 C21.96261719 37.87722656 21.92523438 36.75445312 21.88671875 35.59765625 C21.49924632 26.0651959 21.09140864 17.96498963 15.9375 9.6875 C12.59868687 6.63284118 9.62695323 5.34352132 5.40234375 3.859375 C3.15848623 3.05669426 1.10614603 2.10900992 -1 1 C-0.67 0.67 -0.34 0.34 0 0 Z " fill="#484DC1" transform="translate(106,98)"/>
<path d="M0 0 C0.66 0 1.32 0 2 0 C2 16.83 2 33.66 2 51 C3.65 51.33 5.3 51.66 7 52 C9.8125 54.5625 9.8125 54.5625 12 57 C11.67 57.99 11.34 58.98 11 60 C8 61 8 61 5 60 C5.20625 59.38125 5.4125 58.7625 5.625 58.125 C5.810625 57.073125 5.810625 57.073125 6 56 C3.9714169 53.62841973 3.9714169 53.62841973 0 53 C0 35.51 0 18.02 0 0 Z " fill="#4D49BF" transform="translate(164,88)"/>
<path d="M0 0 C1.95216435 1.95216435 2.84826645 3.53199953 4 6 C2.68 6 1.36 6 0 6 C0.99 7.485 0.99 7.485 2 9 C2.99 10.485 2.99 10.485 4 12 C7.58357241 12.25015873 7.58357241 12.25015873 11 12 C11 13.32 11 14.64 11 16 C10.29875 15.82339844 9.5975 15.64679688 8.875 15.46484375 C4.7846109 14.80349008 1.02545189 15.43562649 -3.0625 15.94140625 C-6.23699596 16.00472731 -8.16556274 15.37032536 -11 14 C-10.34 13.01 -9.68 12.02 -9 11 C-8.34 11 -7.68 11 -7 11 C-7.33 9.68 -7.66 8.36 -8 7 C-7.34 6.67 -6.68 6.34 -6 6 C-5.67 6.33 -5.34 6.66 -5 7 C-3.25728062 4.702779 -1.60088848 2.40133271 0 0 Z " fill="#4F44E5" transform="translate(306,73)"/>
<path d="M0 0 C0.99 0 1.98 0 3 0 C3 0.66 3 1.32 3 2 C2.34 2 1.68 2 1 2 C1.18046875 2.70640625 1.3609375 3.4128125 1.546875 4.140625 C2.80821684 12.10012694 -0.28459436 20.59434825 -3 28 C-6.1385057 27.25561083 -9.02009661 26.24162641 -12 25 C-11.01 24.67 -10.02 24.34 -9 24 C-8.67 23.34 -8.34 22.68 -8 22 C-7.34 22.33 -6.68 22.66 -6 23 C-6.33 21.68 -6.66 20.36 -7 19 C-7.99 19.33 -8.98 19.66 -10 20 C-10 19.34 -10 18.68 -10 18 C-8.68 18 -7.36 18 -6 18 C-6 17.34 -6 16.68 -6 16 C-4.68 15.67 -3.36 15.34 -2 15 C-1.34 12.69 -0.68 10.38 0 8 C-0.66 7.67 -1.32 7.34 -2 7 C-1.34 4.69 -0.68 2.38 0 0 Z " fill="#4940DD" transform="translate(142,42)"/>
<path d="M0 0 C1.03115279 3.26913624 0.9638984 5.86041348 0.5625 9.25 C0.46066406 10.14203125 0.35882813 11.0340625 0.25390625 11.953125 C0.12822266 12.96632812 0.12822266 12.96632812 0 14 C0.66 14 1.32 14 2 14 C2.33 12.68 2.66 11.36 3 10 C3.99 10 4.98 10 6 10 C8.16666667 9.33333333 8.16666667 9.33333333 10 8 C10.80528889 5.94999129 10.80528889 5.94999129 11 4 C11.99 4.66 12.98 5.32 14 6 C6.67480829 12.63447884 6.67480829 12.63447884 3 14.625 C0.75487366 15.84576335 0.75487366 15.84576335 0.375 18.4375 C0.77300913 21.22991047 0.77300913 21.22991047 3.4375 22.875 C6 25 6 25 6.8125 28.75 C6.874375 29.8225 6.93625 30.895 7 32 C5.35 31.67 3.7 31.34 2 31 C2.33 29.35 2.66 27.7 3 26 C2.18402344 25.69964844 1.36804688 25.39929688 0.52734375 25.08984375 C-2 23 -2 23 -2.44482422 21.03564453 C-2.56648655 18.52877394 -2.53302273 16.07043992 -2.4375 13.5625 C-2.43169922 12.70333984 -2.42589844 11.84417969 -2.41992188 10.95898438 C-2.33743559 6.70599153 -2.13196026 3.75930508 0 0 Z " fill="#5351C3" transform="translate(175,117)"/>
<path d="M0 0 C3.63 0 7.26 0 11 0 C11 3.3 11 6.6 11 10 C7.37 10 3.74 10 0 10 C0 6.7 0 3.4 0 0 Z " fill="#4E42E3" transform="translate(353,80)"/>
<path d="M0 0 C0.66 1.32 1.32 2.64 2 4 C1.01 4.99 0.02 5.98 -1 7 C4.01826141 8.22065818 8.36880916 7.74401332 13.4140625 7.05859375 C16.24074763 6.99454499 17.62271041 7.5323306 20 9 C20 7.68 20 6.36 20 5 C17.36 5.33 14.72 5.66 12 6 C12 5.01 12 4.02 12 3 C15.3 3 18.6 3 22 3 C22 5.31 22 7.62 22 10 C-0.80127986 10.20638953 -0.80127986 10.20638953 -10 9 C-6.375 6 -6.375 6 -3 6 C-2.690625 5.195625 -2.38125 4.39125 -2.0625 3.5625 C-1 1 -1 1 0 0 Z " fill="#463FDA" transform="translate(297,80)"/>
<path d="M0 0 C7.59 0 15.18 0 23 0 C23 5.44328904 22.47311819 6.20127698 19 10 C16.525 9.505 16.525 9.505 14 9 C14.375 7.0625 14.375 7.0625 15 5 C15.66 4.67 16.32 4.34 17 4 C16.01 3.67 15.02 3.34 14 3 C14 2.34 14 1.68 14 1 C12.948125 1.185625 11.89625 1.37125 10.8125 1.5625 C7.42880118 1.95079331 5.23574112 1.88247485 2 1 C2 1.66 2 2.32 2 3 C3.32 3.66 4.64 4.32 6 5 C4.02 5 2.04 5 0 5 C0 3.35 0 1.7 0 0 Z " fill="#4C40E3" transform="translate(295,65)"/>
<path d="M0 0 C0.33 0 0.66 0 1 0 C1.01458252 0.65371582 1.02916504 1.30743164 1.04418945 1.98095703 C1.35061521 14.29645735 1.71253832 26.06508479 5 38 C5.33540977 39.33281251 5.66965703 40.66592264 6 42 C5.01 41.67 4.02 41.34 3 41 C-1.12974396 31.78749425 -1.1591313 23.09134064 -1.125 13.125 C-1.12886719 11.97257812 -1.13273438 10.82015625 -1.13671875 9.6328125 C-1.13542969 8.5396875 -1.13414062 7.4465625 -1.1328125 6.3203125 C-1.13168457 5.32273926 -1.13055664 4.32516602 -1.12939453 3.29736328 C-1 1 -1 1 0 0 Z " fill="#5A5BC0" transform="translate(143,98)"/>
<path d="M0 0 C0.33 0 0.66 0 1 0 C1.19477739 1.62414378 1.38059458 3.24936423 1.5625 4.875 C1.66691406 5.77992187 1.77132813 6.68484375 1.87890625 7.6171875 C2 10 2 10 1 12 C0.01 12 -0.98 12 -2 12 C-2 14.31 -2 16.62 -2 19 C-2.99 19.33 -3.98 19.66 -5 20 C-6.22969878 23.51190809 -6.22969878 23.51190809 -7 27 C-4.03 27 -1.06 27 2 27 C2 26.01 2 25.02 2 24 C2.66 24.33 3.32 24.66 4 25 C3.67 25.99 3.34 26.98 3 28 C-0.96 28 -4.92 28 -9 28 C-7.67554915 21.37105659 -5.78331885 15.24709958 -3.375 8.9375 C-2.88773437 7.6390918 -2.88773437 7.6390918 -2.390625 6.31445312 C-1.59908318 4.20755504 -0.80216278 2.10287198 0 0 Z " fill="#4A40CA" transform="translate(376,62)"/>
<path d="M0 0 C0.99 0.66 1.98 1.32 3 2 C3.66 1.67 4.32 1.34 5 1 C5.33 2.98 5.66 4.96 6 7 C7.98 7.66 9.96 8.32 12 9 C12 9.66 12 10.32 12 11 C8.04 11 4.08 11 0 11 C-2 7 -2 7 -1.6875 4.9375 C-1.460625 4.298125 -1.23375 3.65875 -1 3 C-0.67 2.01 -0.34 1.02 0 0 Z " fill="#4E43E5" transform="translate(264,78)"/>
<path d="M0 0 C7.20130754 0.25267746 12.37686538 2.42272784 17.54296875 7.5234375 C21.38779619 11.96584809 23.32750966 15.10482621 23 21 C22.34 21.33 21.68 21.66 21 22 C20.84144531 21.41992188 20.68289062 20.83984375 20.51953125 20.2421875 C18.90691113 14.84302841 17.25690679 10.89461685 13 7 C10.50813945 5.77429587 8.02170481 4.77958197 5.40234375 3.859375 C3.15848623 3.05669426 1.10614603 2.10900992 -1 1 C-0.67 0.67 -0.34 0.34 0 0 Z " fill="#4B49AE" transform="translate(106,98)"/>
<path d="M0 0 C4.95 0 9.9 0 15 0 C15 2.97 15 5.94 15 9 C11.04 9 7.08 9 3 9 C3 8.01 3 7.02 3 6 C4.98 5.67 6.96 5.34 9 5 C9 4.34 9 3.68 9 3 C10.32 3 11.64 3 13 3 C12.67 4.32 12.34 5.64 12 7 C12.33 7 12.66 7 13 7 C13.33 5.02 13.66 3.04 14 1 C9.38 1 4.76 1 0 1 C0 0.67 0 0.34 0 0 Z " fill="#5048D5" transform="translate(240,68)"/>
<path d="M0 0 C1.32 0 2.64 0 4 0 C4 5.61 4 11.22 4 17 C2.68 16.67 1.36 16.34 0 16 C0 10.72 0 5.44 0 0 Z " fill="#4B45D0" transform="translate(168,69)"/>
<path d="M0 0 C0.99 0.495 0.99 0.495 2 1 C2 6.61 2 12.22 2 18 C2.66 18.33 3.32 18.66 4 19 C4 27.58 4 36.16 4 45 C4.66 45.33 5.32 45.66 6 46 C4.35 46.66 2.7 47.32 1 48 C1.15339844 46.8965625 1.30679688 45.793125 1.46484375 44.65625 C2.09501676 39.6148659 2.33760084 34.57313521 2.5625 29.5 C2.60568359 28.5821875 2.64886719 27.664375 2.69335938 26.71875 C2.79833456 24.47927939 2.90049248 22.23971908 3 20 C2.01 19.67 1.02 19.34 0 19 C0 12.73 0 6.46 0 0 Z " fill="#564DCE" transform="translate(175,69)"/>
<path d="M0 0 C0 0.66 0 1.32 0 2 C1.32 2 2.64 2 4 2 C3.34 3.32 2.68 4.64 2 6 C1.25556641 5.51273438 1.25556641 5.51273438 0.49609375 5.015625 C-2.96035802 3.609244 -6.26728788 3.70985183 -9.9375 3.75 C-10.64068359 3.74226563 -11.34386719 3.73453125 -12.06835938 3.7265625 C-16.15398718 3.74187882 -19.32641173 4.18836743 -23 6 C-23.33 5.34 -23.66 4.68 -24 4 C-19.11021054 1.13224612 -15.26633078 0.48930547 -9.75 0.3125 C-9.03070313 0.27833984 -8.31140625 0.24417969 -7.5703125 0.20898438 C-5.046547 0.09319364 -2.52665948 0 0 0 Z " fill="#4E45C6" transform="translate(170,38)"/>
<path d="M0 0 C2 1 2 1 4 3 C4.99 3 5.98 3 7 3 C7.33 3.33 7.66 3.66 8 4 C8.33 3.01 8.66 2.02 9 1 C9.33 0.67 9.66 0.34 10 0 C10.99 0.33 11.98 0.66 13 1 C12.06862408 2.29608947 11.1296434 3.58671632 10.1875 4.875 C9.66542969 5.59429687 9.14335938 6.31359375 8.60546875 7.0546875 C7 9 7 9 4 11 C3.32591692 9.73308493 2.66099503 8.46129251 2 7.1875 C1.62875 6.47980469 1.2575 5.77210937 0.875 5.04296875 C0 3 0 3 0 0 Z " fill="#4A42CD" transform="translate(83,98)"/>
<path d="M0 0 C3.3 0 6.6 0 10 0 C11 2 11 2 10.00390625 5.0390625 C9.52824219 6.22242187 9.05257813 7.40578125 8.5625 8.625 C7.85287109 10.40777344 7.85287109 10.40777344 7.12890625 12.2265625 C6.75636719 13.14179687 6.38382812 14.05703125 6 15 C5.67 15 5.34 15 5 15 C5 12.69 5 10.38 5 8 C4.34 7.67 3.68 7.34 3 7 C3.99 6.67 4.98 6.34 6 6 C6.73323796 3.98491642 6.73323796 3.98491642 7 2 C4.69 2 2.38 2 0 2 C0 1.34 0 0.68 0 0 Z " fill="#4E44C1" transform="translate(340,63)"/>
<path d="M0 0 C1.32 0 2.64 0 4 0 C4 4.62 4 9.24 4 14 C2.68 13.34 1.36 12.68 0 12 C0 8.04 0 4.08 0 0 Z " fill="#4B44D3" transform="translate(162,69)"/>
<path d="M0 0 C3.63 0 7.26 0 11 0 C11.33 1.65 11.66 3.3 12 5 C11.34 4.34 10.68 3.68 10 3 C6.41656024 2.83322718 6.41656024 2.83322718 3 3 C3.33 3.515625 3.66 4.03125 4 4.5625 C5.32010877 7.78026512 5.13242105 10.5570528 5 14 C1.96047287 9.4407093 0 5.52837581 0 0 Z " fill="#4B41C0" transform="translate(320,63)"/>
<path d="M0 0 C1.03115279 3.26913624 0.9638984 5.86041348 0.5625 9.25 C0.46066406 10.14203125 0.35882813 11.0340625 0.25390625 11.953125 C0.17011719 12.62859375 0.08632812 13.3040625 0 14 C0.66 14 1.32 14 2 14 C2.33 12.68 2.66 11.36 3 10 C3.99 10 4.98 10 6 10 C8.16666667 9.33333333 8.16666667 9.33333333 10 8 C10.80528889 5.94999129 10.80528889 5.94999129 11 4 C11.99 4.66 12.98 5.32 14 6 C2.95890411 16 2.95890411 16 -1 16 C-1.02701408 13.89590361 -1.04640223 11.79170822 -1.0625 9.6875 C-1.07410156 8.51574219 -1.08570313 7.34398438 -1.09765625 6.13671875 C-1 3 -1 3 0 0 Z " fill="#4B42C5" transform="translate(175,117)"/>
<path d="M0 0 C3.63 0 7.26 0 11 0 C11 3.3 11 6.6 11 10 C7.37 10 3.74 10 0 10 C0 6.7 0 3.4 0 0 Z M1 1 C1.33 3.31 1.66 5.62 2 8 C4.64 8.33 7.28 8.66 10 9 C10 6.36 10 3.72 10 1 C7.03 1 4.06 1 1 1 Z " fill="#4C43D2" transform="translate(353,80)"/>
<path d="M0 0 C1.32 0 2.64 0 4 0 C5.75 2 5.75 2 7 4 C7.66 3.34 8.32 2.68 9 2 C8.67 4.31 8.34 6.62 8 9 C5.625 9.625 5.625 9.625 3 10 C2.34 9.34 1.68 8.68 1 8 C0.01 7.34 -0.98 6.68 -2 6 C-1.01 6 -0.02 6 1 6 C1.33 5.34 1.66 4.68 2 4 C2.66 4.33 3.32 4.66 4 5 C3.67 3.68 3.34 2.36 3 1 C2.01 1.33 1.02 1.66 0 2 C0 1.34 0 0.68 0 0 Z " fill="#4642B5" transform="translate(132,60)"/>
<path d="M0 0 C0.66 0 1.32 0 2 0 C2.1953125 1.88802083 2.390625 3.77604167 2.5859375 5.6640625 C2.94882658 8.11606389 2.94882658 8.11606389 4.03125 10.78125 C5.16334794 14.54273672 5.22281199 17.99261647 5.125 21.875 C5.11597656 22.56335938 5.10695312 23.25171875 5.09765625 23.9609375 C5.07432513 25.64077838 5.03846326 27.32043746 5 29 C4.67 29 4.34 29 4 29 C2.68 19.43 1.36 9.86 0 0 Z " fill="#4C43C7" transform="translate(175,49)"/>
<path d="M0 0 C0.33 0 0.66 0 1 0 C1 1.65 1 3.3 1 5 C3.64 5 6.28 5 9 5 C8.67 3.68 8.34 2.36 8 1 C14.52307692 0.63076923 14.52307692 0.63076923 16.9375 2.5 C17.288125 2.995 17.63875 3.49 18 4 C17.34 4.66 16.68 5.32 16 6 C15.67 5.34 15.34 4.68 15 4 C13.68 4 12.36 4 11 4 C10.67 4.66 10.34 5.32 10 6 C6.7 6 3.4 6 0 6 C-1 2 -1 2 0 0 Z " fill="#4540C3" transform="translate(262,67)"/>
<path d="M0 0 C1.32 0 2.64 0 4 0 C4 3.3 4 6.6 4 10 C3.01 10 2.02 10 1 10 C0 9 0 9 -0.09765625 6.93359375 C-0.08605469 6.10988281 -0.07445312 5.28617187 -0.0625 4.4375 C-0.05347656 3.61121094 -0.04445312 2.78492187 -0.03515625 1.93359375 C-0.02355469 1.29550781 -0.01195312 0.65742187 0 0 Z " fill="#413CCF" transform="translate(156,69)"/>
<path d="M0 0 C7.43296154 1.8851714 12.93425142 5.37787425 19 10 C18.67 10.66 18.34 11.32 18 12 C17.278125 11.360625 16.55625 10.72125 15.8125 10.0625 C13.21962736 7.85399734 13.21962736 7.85399734 10.4375 7.5 C7.27020113 6.85029767 6.2123361 5.28370178 4 3 C1.8618034 2.2127322 1.8618034 2.2127322 0 2 C0 1.34 0 0.68 0 0 Z " fill="#4D42C6" transform="translate(165,15)"/>
<path d="M0 0 C0.33 0.99 0.66 1.98 1 3 C-0.21484375 5.26171875 -0.21484375 5.26171875 -1.9375 7.6875 C-2.78634766 8.89986328 -2.78634766 8.89986328 -3.65234375 10.13671875 C-4.09707031 10.75160156 -4.54179687 11.36648437 -5 12 C-7 9 -7 9 -6.625 6.3125 C-6.41875 5.549375 -6.2125 4.78625 -6 4 C-4 3.33333333 -2 2.66666667 0 2 C0 1.34 0 0.68 0 0 Z " fill="#4A42CF" transform="translate(201,103)"/>
<path d="M0 0 C1.65 0 3.3 0 5 0 C5.33 0.66 5.66 1.32 6 2 C6.66 2 7.32 2 8 2 C7.67 2.99 7.34 3.98 7 5 C4.03 5 1.06 5 -2 5 C-2 4.01 -2 3.02 -2 2 C-1.34 2 -0.68 2 0 2 C0 1.34 0 0.68 0 0 Z " fill="#5149B8" transform="translate(157,56)"/>
<path d="M0 0 C0.99 0 1.98 0 3 0 C3 0.66 3 1.32 3 2 C2.34 2 1.68 2 1 2 C1.18433594 2.69480469 1.36867187 3.38960937 1.55859375 4.10546875 C2.0674953 7.44260193 1.680978 10.00182365 1.0625 13.3125 C0.77052734 14.91544922 0.77052734 14.91544922 0.47265625 16.55078125 C0.31667969 17.35902344 0.16070312 18.16726562 0 19 C-0.33 19 -0.66 19 -1 19 C-0.67 15.37 -0.34 11.74 0 8 C-0.66 7.67 -1.32 7.34 -2 7 C-1.34 4.69 -0.68 2.38 0 0 Z " fill="#4944BD" transform="translate(142,42)"/>
<path d="M0 0 C0.66 0.66 1.32 1.32 2 2 C1.57469657 5.82773086 0.26430036 9.3756723 -1 13 C-2.32 12.67 -3.64 12.34 -5 12 C-3.87548273 9.0280615 -2.77706209 6.66559313 -1 4 C-1 3.01 -1 2.02 -1 1 C-0.67 0.67 -0.34 0.34 0 0 Z " fill="#4B3FCF" transform="translate(303,68)"/>
<path d="M0 0 C3.2626876 3.08632611 6.02235218 5.93483504 8 10 C7.67 10.66 7.34 11.32 7 12 C5.35 11.01 3.7 10.02 2 9 C2.33 8.01 2.66 7.02 3 6 C2.01 6 1.02 6 0 6 C0 4.02 0 2.04 0 0 Z " fill="#4F42CC" transform="translate(192,33)"/>
<path d="M0 0 C0.556875 0.7734375 0.556875 0.7734375 1.125 1.5625 C-0.875 3.5625 -0.875 3.5625 -4.5 3.6875 C-5.61375 3.64625 -6.7275 3.605 -7.875 3.5625 C-7.875 2.2425 -7.875 0.9225 -7.875 -0.4375 C-2.33653846 -1.79134615 -2.33653846 -1.79134615 0 0 Z " fill="#4B41E4" transform="translate(330.875,95.4375)"/>
<path d="M0 0 C0.99 0 1.98 0 3 0 C3 2.64 3 5.28 3 8 C1.35 8 -0.3 8 -2 8 C-1.67 6.68 -1.34 5.36 -1 4 C-1.66 3.67 -2.32 3.34 -3 3 C-2.34 3 -1.68 3 -1 3 C-0.67 2.01 -0.34 1.02 0 0 Z M1 3 C2 7 2 7 2 7 Z " fill="#4C44C7" transform="translate(177,40)"/>
<path d="M0 0 C0.99 0.33 1.98 0.66 3 1 C3.94921875 3.50390625 3.94921875 3.50390625 4.6875 6.5625 C4.93886719 7.57441406 5.19023437 8.58632812 5.44921875 9.62890625 C5.63097656 10.41136719 5.81273437 11.19382813 6 12 C3 11 3 11 2.05078125 9.2578125 C1.80714844 8.55398437 1.56351563 7.85015625 1.3125 7.125 C1.06113281 6.42632812 0.80976563 5.72765625 0.55078125 5.0078125 C0 3 0 3 0 0 Z " fill="#4A4AB9" transform="translate(143,128)"/>
<path d="M0 0 C1.32 0 2.64 0 4 0 C4 2.31 4 4.62 4 7 C2.68 6.67 1.36 6.34 0 6 C0 4.02 0 2.04 0 0 Z " fill="#4444BF" transform="translate(149,69)"/>
<path d="M0 0 C0.66 0 1.32 0 2 0 C2.3125 2.1875 2.3125 2.1875 2 5 C-0.5 7.8125 -0.5 7.8125 -3 10 C-2.67 7.36 -2.34 4.72 -2 2 C-1.34 2 -0.68 2 0 2 C0 1.34 0 0.68 0 0 Z " fill="#483DD6" transform="translate(316,65)"/>
<path d="M0 0 C-0.33 0.99 -0.66 1.98 -1 3 C-4 4 -4 4 -7 3 C-7 2.01 -7 1.02 -7 0 C-2.25 -1.125 -2.25 -1.125 0 0 Z " fill="#4D53C3" transform="translate(176,145)"/>
<path d="M0 0 C0.99 0.495 0.99 0.495 2 1 C3.9959722 1.67863055 5.99568551 2.34641919 8 3 C8 3.66 8 4.32 8 5 C5.36 5 2.72 5 0 5 C0 3.35 0 1.7 0 0 Z " fill="#4238DD" transform="translate(263,67)"/>
<path d="M0 0 C0.66 1.32 1.32 2.64 2 4 C-2.75 8.875 -2.75 8.875 -5 10 C-3.84414715 6.08788267 -2.64465038 3.1254959 0 0 Z " fill="#4F44CB" transform="translate(90,39)"/>
<path d="M0 0 C0.66 0 1.32 0 2 0 C2 1.65 2 3.3 2 5 C2.66 5.33 3.32 5.66 4 6 C2.35 6.66 0.7 7.32 -1 8 C-0.67 5.36 -0.34 2.72 0 0 Z " fill="#4D44C8" transform="translate(177,109)"/>
<path d="M0 0 C1.98 0.66 3.96 1.32 6 2 C3.66001872 2.77999376 1.39100534 3.42036234 -1 4 C-2.11375 4.2784375 -2.11375 4.2784375 -3.25 4.5625 C-3.8275 4.706875 -4.405 4.85125 -5 5 C-3.35 3.35 -1.7 1.7 0 0 Z " fill="#493FDA" transform="translate(142,39)"/>
<path d="M0 0 C-4.30769231 3.93846154 -4.30769231 3.93846154 -7.8125 4.25 C-8.534375 4.1675 -9.25625 4.085 -10 4 C-7.39928297 0.98864344 -3.94054294 -1.97027147 0 0 Z " fill="#5247C5" transform="translate(122,16)"/>
<path d="M0 0 C2.33944736 0.28730055 4.6739143 0.61936779 7 1 C5.6875 2.5 5.6875 2.5 4 4 C3.01 4 2.02 4 1 4 C1 3.34 1 2.68 1 2 C0.34 1.67 -0.32 1.34 -1 1 C-0.67 0.67 -0.34 0.34 0 0 Z " fill="#4D42CF" transform="translate(120,72)"/>
<path d="M0 0 C2.64 0 5.28 0 8 0 C8 0.66 8 1.32 8 2 C7.34 2 6.68 2 6 2 C6 2.66 6 3.32 6 4 C3.00667261 3.0022242 2.05233685 2.2477975 0 0 Z " fill="#463DE5" transform="translate(339,65)"/>
<path d="M0 0 C2.76223278 2.76223278 2.57856291 5.20706617 3 9 C2.34 9 1.68 9 1 9 C-1.125 2.25 -1.125 2.25 0 0 Z " fill="#4D4EA9" transform="translate(146,140)"/>
<path d="M0 0 C2 2 2 2 2.125 5.625 C2.08375 6.73875 2.0425 7.8525 2 9 C1.34 8.67 0.68 8.34 0 8 C-0.6875 4.5 -0.6875 4.5 -1 1 C-0.67 0.67 -0.34 0.34 0 0 Z " fill="#5052BF" transform="translate(143,120)"/>
<path d="M0 0 C-2.39763185 2.39763185 -3.33273498 2.34280586 -6.625 2.625 C-7.44226563 2.69976562 -8.25953125 2.77453125 -9.1015625 2.8515625 C-9.72804688 2.90054688 -10.35453125 2.94953125 -11 3 C-7.63114177 -0.36885823 -4.54278442 -0.10095076 0 0 Z " fill="#4840CA" transform="translate(274,74)"/>
<path d="M0 0 C0.66 1.32 1.32 2.64 2 4 C0.68 4.99 -0.64 5.98 -2 7 C-2.66 6.67 -3.32 6.34 -4 6 C-2.68 4.02 -1.36 2.04 0 0 Z " fill="#4A3FC9" transform="translate(297,80)"/>
<path d="M0 0 C2.31 1.98 4.62 3.96 7 6 C3.79604584 6 1.90600261 5.25664978 -1 4 C-0.67 2.68 -0.34 1.36 0 0 Z " fill="#5047C3" transform="translate(185,26)"/>
<path d="M0 0 C0.99 0 1.98 0 3 0 C3 1.32 3 2.64 3 4 C1.68 3.67 0.36 3.34 -1 3 C-0.67 2.01 -0.34 1.02 0 0 Z " fill="#5548B9" transform="translate(163,50)"/>
<path d="M0 0 C1.32 0.33 2.64 0.66 4 1 C3.67 1.99 3.34 2.98 3 4 C2.01 4 1.02 4 0 4 C0 2.68 0 1.36 0 0 Z " fill="#5346B9" transform="translate(152,50)"/>
<path d="M0 0 C1.32 0 2.64 0 4 0 C3.67 1.32 3.34 2.64 3 4 C2.01 3.34 1.02 2.68 0 2 C0 1.34 0 0.68 0 0 Z " fill="#4E46B3" transform="translate(142,69)"/>
<path d="M0 0 C0.99 0.33 1.98 0.66 3 1 C2.67 1.66 2.34 2.32 2 3 C1.34 3 0.68 3 0 3 C0 2.01 0 1.02 0 0 Z " fill="#4D50A4" transform="translate(139,145)"/>
<path d="M0 0 C0.66 0 1.32 0 2 0 C2 0.99 2 1.98 2 3 C1.34 3 0.68 3 0 3 C0 2.01 0 1.02 0 0 Z " fill="#4B529B" transform="translate(165,145)"/>
<path d="M0 0 C0.66 0 1.32 0 2 0 C2 0.99 2 1.98 2 3 C1.34 3 0.68 3 0 3 C0 2.01 0 1.02 0 0 Z " fill="#49539F" transform="translate(161,145)"/>
<path d="M0 0 C0.66 0 1.32 0 2 0 C2 0.99 2 1.98 2 3 C1.34 3 0.68 3 0 3 C0 2.01 0 1.02 0 0 Z " fill="#4F578D" transform="translate(143,145)"/>
<path d="M0 0 C0.66 0 1.32 0 2 0 C2 0.99 2 1.98 2 3 C1.34 3 0.68 3 0 3 C0 2.01 0 1.02 0 0 Z " fill="#515284" transform="translate(135,145)"/>
<path d="" fill="#FFFFFF" transform="translate(0,0)"/>
<path d="" fill="#FFFFFF" transform="translate(0,0)"/>
<path d="" fill="#FFFFFF" transform="translate(0,0)"/>
<path d="" fill="#FFFFFF" transform="translate(0,0)"/>
<path d="" fill="#FFFFFF" transform="translate(0,0)"/>
<path d="" fill="#FFFFFF" transform="translate(0,0)"/>
<path d="" fill="#FFFFFF" transform="translate(0,0)"/>
<path d="" fill="#FFFFFF" transform="translate(0,0)"/>
<path d="" fill="#FFFFFF" transform="translate(0,0)"/>
<path d="" fill="#FFFFFF" transform="translate(0,0)"/>
<path d="" fill="#FFFFFF" transform="translate(0,0)"/>
<path d="" fill="#FFFFFF" transform="translate(0,0)"/>
<path d="" fill="#FFFFFF" transform="translate(0,0)"/>
<path d="" fill="#FFFFFF" transform="translate(0,0)"/>
<path d="" fill="#FFFFFF" transform="translate(0,0)"/>
<path d="" fill="#FFFFFF" transform="translate(0,0)"/>
<path d="" fill="#FFFFFF" transform="translate(0,0)"/>
<path d="" fill="#FFFFFF" transform="translate(0,0)"/>
<path d="" fill="#FFFFFF" transform="translate(0,0)"/>
<path d="" fill="#FFFFFF" transform="translate(0,0)"/>
<path d="" fill="#FFFFFF" transform="translate(0,0)"/>
<path d="" fill="#FFFFFF" transform="translate(0,0)"/>
<path d="" fill="#FFFFFF" transform="translate(0,0)"/>
<path d="" fill="#FFFFFF" transform="translate(0,0)"/>
<path d="" fill="#FFFFFF" transform="translate(0,0)"/>
<path d="" fill="#FFFFFE" transform="translate(0,0)"/>
<path d="" fill="#FFFFFF" transform="translate(0,0)"/>
<path d="" fill="#FFFFFF" transform="translate(0,0)"/>
<path d="" fill="#FFFFFF" transform="translate(0,0)"/>
<path d="" fill="#FFFFFF" transform="translate(0,0)"/>
<path d="" fill="#FFFFFF" transform="translate(0,0)"/>
<path d="" fill="#FFFFFF" transform="translate(0,0)"/>
<path d="" fill="#FFFFFF" transform="translate(0,0)"/>
<path d="" fill="#FFFFFF" transform="translate(0,0)"/>
<path d="" fill="#FFFFFF" transform="translate(0,0)"/>
<path d="" fill="#FFFFFF" transform="translate(0,0)"/>
<path d="" fill="#FFFFFF" transform="translate(0,0)"/>
<path d="" fill="#FFFFFF" transform="translate(0,0)"/>
<path d="" fill="#FFFFFF" transform="translate(0,0)"/>
<path d="" fill="#FFFFFF" transform="translate(0,0)"/>
<path d="" fill="#FFFFFF" transform="translate(0,0)"/>
<path d="" fill="#FFFFFF" transform="translate(0,0)"/>
<path d="" fill="#FFFFFF" transform="translate(0,0)"/>
<path d="" fill="#FFFFFF" transform="translate(0,0)"/>
<path d="" fill="#FFFFFF" transform="translate(0,0)"/>
<path d="" fill="#FFFFFF" transform="translate(0,0)"/>
<path d="" fill="#FFFFFF" transform="translate(0,0)"/>
<path d="" fill="#FFFFFF" transform="translate(0,0)"/>
<path d="" fill="#FFFFFF" transform="translate(0,0)"/>
<path d="" fill="#FFFFFF" transform="translate(0,0)"/>
<path d="" fill="#FFFFFF" transform="translate(0,0)"/>
<path d="" fill="#FFFFFF" transform="translate(0,0)"/>
<path d="" fill="#FFFFFF" transform="translate(0,0)"/>
<path d="" fill="#FFFFFF" transform="translate(0,0)"/>
<path d="" fill="#FFFFFF" transform="translate(0,0)"/>
<path d="" fill="#FFFFFF" transform="translate(0,0)"/>
<path d="" fill="#FFFFFF" transform="translate(0,0)"/>
<path d="" fill="#FFFFFF" transform="translate(0,0)"/>
<path d="" fill="#FFFFFF" transform="translate(0,0)"/>
<path d="" fill="#FFFFFF" transform="translate(0,0)"/>
<path d="" fill="#FFFFFF" transform="translate(0,0)"/>
<path d="" fill="#FFFFFF" transform="translate(0,0)"/>
<path d="" fill="#FFFFFF" transform="translate(0,0)"/>
<path d="" fill="#FFFFFF" transform="translate(0,0)"/>
<path d="" fill="#FFFFFF" transform="translate(0,0)"/>
<path d="" fill="#FFFFFF" transform="translate(0,0)"/>
<path d="" fill="#FFFFFF" transform="translate(0,0)"/>
<path d="" fill="#FFFFFF" transform="translate(0,0)"/>
<path d="" fill="#FFFFFF" transform="translate(0,0)"/>
<path d="" fill="#FFFFFF" transform="translate(0,0)"/>
<path d="" fill="#FFFFFF" transform="translate(0,0)"/>
<path d="" fill="#FFFFFF" transform="translate(0,0)"/>
<path d="" fill="#FFFFFF" transform="translate(0,0)"/>
<path d="" fill="#FFFFFF" transform="translate(0,0)"/>
<path d="" fill="#FFFFFF" transform="translate(0,0)"/>
<path d="" fill="#FFFFFF" transform="translate(0,0)"/>
<path d="" fill="#FFFFFF" transform="translate(0,0)"/>
<path d="" fill="#FFFFFF" transform="translate(0,0)"/>
<path d="" fill="#FFFFFF" transform="translate(0,0)"/>
<path d="" fill="#FFFFFF" transform="translate(0,0)"/>
<path d="" fill="#FFFFFF" transform="translate(0,0)"/>
<path d="" fill="#FFFFFF" transform="translate(0,0)"/>
<path d="" fill="#FFFFFF" transform="translate(0,0)"/>
<path d="" fill="#FFFFFF" transform="translate(0,0)"/>
</svg>
